<svg width="1024" height="1024" viewBox="0 0 1024 1024" fill="none" xmlns="http://www.w3.org/2000/svg">
<g>
<rect width="1024" height="1024"/>
<path d="M511.706 31C585.096 31.2814 624.404 127.103 645.376 184.337C698.912 157.392 775.797 125.163 833.39 154.224C915.167 195.489 869.275 315.91 838.289 376.342C886.096 392.513 954.064 423.8 979.341 469.587C1021.25 545.503 941.317 600.149 879.686 626.847C866.44 632.586 851.838 636.387 839.21 643.355L838.289 643.869C862.203 696.792 895.814 771.622 869.106 827.664C828.763 912.31 706.508 864.552 645.376 835.452C629.606 895.637 579.414 983.126 511.706 988C436.438 983.569 401.582 893.977 379.26 833.894C352.382 850.021 309.723 863.464 279.802 870.052C219.793 883.261 161.871 871.307 148.016 804.057C138.929 759.949 161.216 682.836 187.056 643.869C179.686 640.895 171.911 638.704 164.451 635.897C5.51008 576.098 -23.1705 467.144 148.935 391.311C161.509 385.771 173.827 380.167 187.056 376.342C151.261 313.547 111.324 181.271 201.423 150.08C258.834 130.204 328.043 159.353 379.26 184.337C403.577 122.127 431.969 35.0419 511.706 31ZM487.53 357.206C475.479 358.217 462.999 359.058 450.912 359.043C437.033 370.304 368.063 434.828 359.592 450.992C349.13 482.661 359.966 535.121 355.838 569.457C387.198 598.731 420.641 632.414 450.912 662.779C477.441 660.693 507.704 663.875 535.201 662.779C548.307 661.689 561.686 662.188 574.714 660.758C606.683 634.138 635.724 602.609 664.482 572.671C667.414 543.866 668.721 477.629 664.482 448.638C642.842 421.844 601.777 381.255 574.714 357.206C549.699 359.56 513.678 357.158 487.53 357.206ZM776.023 169.463C735.515 171.053 687.591 188.773 653.479 210.015C654.478 218.406 657.26 226.458 659.355 234.619C668.275 269.334 674.833 307.158 681.785 342.671C696.545 341.958 729.559 348.805 745.015 352.046C766.041 355.711 792.924 360.609 812.264 368.998C844.412 307.846 899.621 160.567 776.023 169.463ZM237.538 169.463C217.749 171.193 198.549 175.854 185.237 191.715C151.472 231.95 187.684 327.331 212.954 368.998C233.981 363.246 267.305 354.033 288.6 352.046C305.812 346.309 325.805 344.622 343.783 342.671C346.145 301.214 359.747 249.484 371.056 210.015C335.881 188.792 279.062 168.064 237.538 169.463ZM212.954 650.852C184.003 697.238 143.333 804.798 198.639 839.585C231.451 860.225 279.714 844.752 314.305 833.894C333.568 826.363 353.362 818.832 371.056 807.986C358.569 765.65 349.613 722.271 343.783 678.546C312.073 672.821 241.44 663.364 212.954 650.852ZM812.264 650.852C787.712 657.825 762.607 663.902 737.472 668.345L704.502 673.905C696.923 675.158 689.051 675.962 681.785 678.546C674.636 723.202 666.439 766.648 653.479 810.17C672.764 818.735 691.217 828.428 711.188 835.452C745.082 846.209 787.547 859.016 821.284 841.291C886.555 806.995 833.727 701.48 813.062 651.337L812.264 650.852ZM505.665 56.4228C448.884 64.1338 415.778 150.465 402.12 196.997C441.866 222.131 475.307 243.029 512.977 272.924L516.253 270.066C543.143 245.686 591.79 214.082 623.315 196.997C600.431 148.65 573.507 52.1834 505.665 56.4228ZM199.507 399.824C152.563 415.227 38.399 460.134 61.0445 527.7C73.2994 564.265 115.701 587.339 149.706 601.485C165.889 608.414 182.7 614.665 199.507 619.903C216.061 585.466 249.361 538.032 272.951 509.308C256.207 489.976 236.09 461.356 222.454 439.309C218.353 432.683 202.921 403.297 199.507 399.824ZM511.706 747.365C477.78 774.855 441.345 801.619 402.12 821.164C419.086 868.365 453.621 963.956 516.253 961.426C569.886 958.427 611.002 863.073 623.315 821.164C603.118 813.643 570.96 791.041 552.808 778.026C547.378 774.135 512.863 747.491 511.706 747.365ZM826.743 399.824C805.302 436.903 779.309 476.975 750.806 509.308C767.651 532.329 785.088 555.139 800.868 578.902C809.74 592.257 816.392 607.685 826.743 619.903C837.222 613.393 861.26 606.327 873.66 601.485C905.723 580.298 955.405 565.792 964.868 520.746C977.753 459.419 870.468 414.058 826.743 399.824ZM653.479 681.738C631.403 681.086 606.777 686.574 585.785 684.504C571.506 696.579 543.961 719.426 533.244 731.872C547.475 740.951 559.455 752.661 574.714 760.359C589.665 774.862 613.323 785.44 631.196 796.49C642.044 758.773 650.093 720.281 655.722 681.435C654.41 681.108 654.609 681.225 653.479 681.738ZM395.179 223.183C385.418 245.872 371.308 312.153 369.756 339.251C396.731 337.123 433.688 341.849 450.912 322.573C462.805 314.075 482.25 298.883 492.052 288.395C465.734 268.762 424.846 237.018 395.179 223.183ZM685.326 368.998C685.991 439.498 687.366 438.72 734.116 489.06C744.689 478.189 754.681 463.472 763.586 450.992C775.293 433.861 792.41 411.14 800.599 392.167C777.073 383.623 712.459 369.323 685.326 368.998ZM369.756 681.738C367.746 691.518 387.353 776.285 395.179 796.49C414.36 785.799 434.593 769.644 452.968 760.359C464.452 751.056 479.34 739.022 492.052 731.872C481.37 722.264 451.484 695.025 439.95 688.767C429.005 685.175 416.557 685.326 405.103 684.504L369.756 681.738ZM627.729 223.183C593.456 244.391 565.385 267.24 533.244 288.395C547.608 299.838 561.162 312.061 574.714 324.444C578.299 327.709 581.825 331.141 585.785 333.95C603.477 333.502 636.027 335.821 653.479 339.251C652.05 326.291 634.684 225.818 627.729 223.183ZM288.6 530.587C271.093 553.065 235.307 600.476 225.209 627.555C244.576 634.009 264.96 638.239 284.972 642.199C302.754 645.491 321.093 649.534 339.129 650.852C335.998 626.1 334.13 604.846 332.462 580.255C323.724 570.368 296.974 536.59 288.6 530.587ZM734.116 530.587C724.066 541.879 697.896 570.981 691.818 582.698C688.207 605.152 688.028 628.226 685.326 650.852L719.933 645.079C727.046 643.91 734.46 642.131 741.682 642.199C759.769 636.111 781.729 631.886 800.599 627.555C778.426 594.928 760.169 560.675 734.116 530.587ZM336.509 368.998C300.435 374.57 259.896 381.047 225.209 392.167C235.739 413.743 249.664 433.434 263.003 453.333C271.36 465.363 280.153 477.094 288.6 489.06C302.817 471.655 318.5 455.301 332.462 437.77C334.38 422.445 335.231 406.918 336.776 391.539C337.266 386.677 342.514 367.956 336.509 368.998ZM402.12 361.925C389.897 363.229 377.541 363.748 365.376 365.488C363.339 377.869 360.097 397.145 360.635 409.65L361.193 410.166C362.864 409.531 363.955 408.896 365.376 407.812C374.441 395.063 387.785 383.841 399.028 372.975C404.472 367.713 417.217 360.551 402.12 361.925ZM359.592 611.691C361.751 626.088 362.949 640.726 365.376 655.045C379.932 656.878 394.888 657.338 409.167 660.758C405.117 653.593 366.111 613.293 359.592 611.691ZM615.253 361.925C630.343 374.478 648.573 398.284 662.445 407.812C661.152 393.81 660.071 379.234 657.08 365.488C643.938 362.655 628.677 360.982 615.253 361.925ZM662.445 611.691C647.552 624.978 631.99 642.153 617.164 656.352L617.538 657.222C631.684 657.118 645.699 654.185 659.811 655.045C660.095 648.986 664.15 613.914 662.445 611.691ZM512.977 305.105C502.013 314.482 490.057 322.726 479.187 332.152C490.04 332.52 500.856 332.152 511.706 332.152C523.046 332.103 534.469 332.501 545.792 332.152C539.353 326.848 518.315 307.788 512.977 305.105ZM691.818 478.289C690.669 489.666 690.514 531.26 691.818 542.565C695.936 537.591 699.831 532.448 703.75 527.314C708.584 521.425 713.749 515.746 717.85 509.308C714.021 504.688 694.501 480.276 691.818 478.289ZM330.573 478.289C321.204 487.278 312.243 498.731 304.711 509.308C310.264 514.742 314.751 521.039 319.288 527.314L330.573 539.751C330.577 531.575 331.64 481.827 330.573 478.289ZM533.244 688.767H481.605C488.255 694.524 495.501 699.752 501.952 705.69C505.575 708.698 509.15 711.927 512.977 714.661C522.699 705.441 533.819 697.823 543.643 688.767C540.207 688.709 536.668 688.472 533.244 688.767Z" fill="#204A7B"/>
<path d="M466.826 622.848C476.972 624.161 486.568 622.629 496.033 623.479C495.573 623.759 495.194 623.957 494.915 624.438L494.997 624.701C498.311 626.351 494.83 626.902 493.898 628.273C493.236 629.245 494.073 629.849 492.512 630.646C487.344 630.584 491.327 631.739 489.671 633.845L489.452 633.916C483.744 635.824 493.36 643.825 488.009 645.381L487.494 646.003L486.882 645.99C485.965 644.754 486.925 646.198 485.048 646.421L485.001 646.544C485.798 646.687 486.639 646.701 487.418 646.891C481.005 647.33 473.382 646.821 466.826 646.891C466.697 644.246 466.815 641.545 466.817 638.896L466.826 622.848Z" fill="#204A7B"/>
<path d="M466.826 376.579C470.883 377.032 475.191 376.307 479.276 376.184C487.378 375.938 495.8 376.158 503.826 377.399C508.708 377.578 516.679 379.425 521.572 380.705C583.537 396.913 626.672 452.418 624.311 517.084C621.762 586.919 563.466 641.945 494.85 646.509C492.409 646.671 489.862 647.01 487.418 646.891C486.638 646.702 485.797 646.688 485.001 646.545L485.048 646.422C486.924 646.199 485.965 644.754 486.881 645.991L487.494 646.004L488.009 645.382C493.36 643.826 483.743 635.825 489.452 633.917L489.671 633.846C491.327 631.74 487.344 630.585 492.512 630.647C494.073 629.85 493.236 629.246 493.898 628.273C494.829 626.903 498.311 626.352 494.997 624.701L494.915 624.439C495.194 623.957 495.573 623.76 496.033 623.48C498.163 622.869 500.341 622.733 502.532 622.465C552.149 616.406 591.432 581.617 600.58 531.686C607.982 491.278 591.505 448.446 558.987 423.485C545.61 413.216 530.971 406.61 514.63 402.64C509.995 401.513 505.219 401.11 500.531 400.252C488.033 399.553 478.936 399.844 466.826 400.252V376.579Z" fill="#204A7B"/>
<path d="M469.657 416.822L488.439 416.815C492.118 416.811 495.818 416.683 499.493 416.856C532.832 418.433 565.274 442.537 577.885 473.038C598.186 522.141 577.673 578.943 527.775 599.512C512.693 605.777 502.577 606.486 486.784 606.471L466.92 606.469C443.244 606.389 425.104 590.772 419.783 567.673C418.135 560.523 418.436 553.427 418.437 546.15L418.443 464.91C418.641 434.637 440.079 416.479 469.657 416.822ZM455.78 447.256C452.928 447.349 454.346 455.258 454.342 458.05L454.331 575.425L476.491 575.429C497.364 575.426 515.502 573.557 531.712 557.884C557.071 533.047 557.556 492.239 532.719 466.849C510.635 444.272 484.575 446.643 455.78 447.256Z" fill="#204A7B"/>
<circle cx="732" cy="165" r="50" fill="#204A7B"/>
<circle cx="112.5" cy="605.5" r="34.5" fill="#204A7B"/>
</g>
</svg>
